/* XPM */
static char * tux2_xpm[] = {
"50 57 17 1",
" 	c None",
".	c #060505",
"+	c #322B1E",
"@	c #9C700A",
"#	c #7C7565",
"$	c #A99B76",
"%	c #C5BD9E",
"&	c #BD8B0B",
"*	c #EBCD16",
"=	c #D19D0A",
"-	c #D8D6CF",
";	c #745510",
">	c #EEBB0D",
",	c #E1DFDB",
"'	c #525252",
")	c #D4CDA9",
"!	c #FCFCFC",
"                     .......                      ",
"                   ...........                    ",
"                  ..........++.                   ",
"                 ..........+''..                  ",
"                 ..........+'+...                 ",
"                 ................                 ",
"                ..................                ",
"                ...........++.....                ",
"                ..+#'+...'#$#+....                ",
"                ..#%%'..+%-)%'....                ",
"                .+##$$..#-#'%%....                ",
"                 +'+#$++#$.+#,....                ",
"                 +'+'$#;#$..',+...                ",
"                 .#'@=>>%>#'%%.....               ",
"                 .'&>*****>>%@.....               ",
"                 .@=>>>*****==.....               ",
"                 +@=>****>===&.....               ",
"                 .;@=>>=$&===#.+'+.               ",
"                 .$#&&=&&&&$)%+.'#+.              ",
"                 .$%$@&&&$%)!,$..+...             ",
"                .+%-%$$$$%),!!,'.....             ",
"               ..',,-%%%),!!!!!$......            ",
"               .+%!!,---!!!!!!!,'......           ",
"              ..#!!!!!!!!!!!!!!!#......           ",
"             ..+,!!!!!!!!!!!!!!!).......          ",
"            ...')!!!!,!!!!!!!!!,,'.......         ",
"           ....#%,!!!,!!!!!,,)))-$........        ",
"           ...+%,!!!!!!!!!!!!!,-)-'.......        ",
"           ...#,!!!!!!!!!!!!!!!!,,%........       ",
"          ..++)!!!!!!!!!!!!!!!!!!,,'.++....       ",
"          ...#!!!!!!!!!!!!!!!!!!!!!$++.....       ",
"          .++-!!!!!!!!!!!!!!!!!!!!!)+..+....      ",
"         ...#!!!!!!!!!!!!!!!!!!!!!!-'.......      ",
"         .+.%!!!!!!!,!!!!!!!!!!!!!!,'........     ",
"        ...+,!!!!!!!!!!!!!!!!!!!!!!,'........     ",
"        ..+',!!!!!!!,!!!!!!!!!!!!!!!#........     ",
"       ...+'!!!!!!!!,!!!!!!!!!!!!!!!#........     ",
"       ...+#!!!!!!!!!!!!!!!!!!!!!!!!#........     ",
"       .+++#!!!!!!!!,!!!!!!!!!!!!!!!#........     ",
"       ;=='',!!!!!!!!!!!!!!!!!!!!!,-'.....+..     ",
"       =**>;#%!!!!!!,!!!!!!!!!!!!,*>@......+;     ",
"      &=>>*=''$!!!!!!!!!!!!!!!!!!)>*@.....+&*     ",
"     @=>>>>>=+.$!!!!!!!!!!!!!!!!!>>>@.....@>*     ",
"  ;@&=>>*>*>>&..#,!!!!!!!!!!!!!!)%>=&@++;@=>>     ",
";=>>>>>>>>>>>='..')!!!!!!!!!!!!!%%=>=&&&&=>>>=    ",
"@>>>>>>>*>*>*>=...',!!!!!!!!!!!!-=&=>====>>>*>&   ",
"@=>>>>>>>>>>>>*;..+)!!!!!!!!!!!!%$&=>>>>>>>>>*>&  ",
";>>*>*>*>*>*>>*='+$,!!!!!!!!!!!-#;&=>>>>>>>*>>>*=@",
";=>>>>>*>>>*>>>>=)!!!!!!!!!!!!%'.;&>>>>>>*>>*>>>>>",
"@=>>*>>>>*>>>*>>>=,!!!!!!!!!,$+..;&>>>>>>>>>>>*>>;",
"@=>>>>*>>>*>>>>>=&$%!,!!,,)$'....@==>>*>*>*>*>>&  ",
"==>>>>>*>>>*>*>>=&'+'###'++......@=>>*>>>>>>>&    ",
"@&&&===>>>>>>>>>=&;.............+;&>>>>>>>=@      ",
"  ;@@@&&&==>>>>=&@;.............+;@===>==&;       ",
"      +;;@@&&&&@@;+..           .;@&&=&&@+        ",
"          +;;@@;;+               +;@@@@;          ",
"             +;++                 .;+;+           "};

