/* XPM */
static char *narrower[] = {
/* width height num_colors chars_per_pixel */
"    37    37        6            1",
/* colors */
". c #000000",
"# c #0000fc",
"a c #808080",
"b c None",
"c c #fcfcfc",
"d c #fcfcfc",
/* pixels */
"bbbbbbbbbbbbbbbbbbbbbbbbbbbbbbbbbbbbb",
"bbbbbbbbbbbbbbbbbbbbbbbbbbbbbbbbbbbbb",
"bbbbbbbbbbbbbbbbbbbbbbbbbbbbbbbbbbbbb",
"bbbbbbbbbbbbbbbbbbbbbbbbbbbbbbbbbbbbb",
"bbbbbbbbbbbbbbbbbbbbbbbbbbbbbbbbbbbbb",
"bbbbbbbbbbbbbbbbbbbbbbbbbbbbbbbbbbbbb",
"bbbbbbbbbbbbbbbbbbbbbbbbbbbbbbbbbbbbb",
"bbbbbbbbbbbbbbbbbbbbbbbbbbbbbbbbbbbbb",
"bbbbbbbbbbbbbbbbbbbbbbbbbbbbbbbbbbbbb",
"bbbbbbbbbbbbbbbbbbbbbbbbbbbbbbbbbbbbb",
"bbbbbbbbbbbbbbbbbbbbbbbbbbbbbbbbbbbbb",
"bbbbbbbbbbbbbbbbbbbbbbbbbbbbbbbbbbbbb",
"bbbbbbbbbb.bbbbbbbbbbbbbbbb.bbbbbbbbb",
"bbbbbbbbbb..bbbbbbbbbbbbbb..bbbbbbbbb",
"bbbbbbbbbb.#.bbbbbbbbbbbb.#.bbbbbbbbb",
"bbbbbbbbbb.##.bbbbbbbbbb.##.bbbbbbbbb",
"bbbbbbbbbb.###.bbbbbbbb.###.bbbbbbbbb",
"bbbbbb.....####.bbbbbb.####.....bbbbb",
"bbbbbb.#########.bbbb.#########.bbbbb",
"bbbbbb.##########.bb.##########.bbbbb",
"bbbbbb.#########.bbbb.#########.bbbbb",
"bbbbbb.....####.bbbbbb.####.....bbbbb",
"bbbbbbbbbb.###.bbbbbbbb.###.bbbbbbbbb",
"bbbbbbbbbb.##.bbbbbbbbbb.##.bbbbbbbbb",
"bbbbbbbbbb.#.bbbbbbbbbbbb.#.bbbbbbbbb",
"bbbbbbbbbb..bbbbbbbbbbbbbb..bbbbbbbbb",
"bbbbbbbbbb.bbbbbbbbbbbbbbbb.bbbbbbbbb",
"bbbbbbbbbbbbbbbbbbbbbbbbbbbbbbbbbbbbb",
"bbbbbbbbbbbbbbbbbbbbbbbbbbbbbbbbbbbbb",
"bbbbbbbbbbbbbbbbbbbbbbbbbbbbbbbbbbbbb",
"bbbbbbbbbbbbbbbbbbbbbbbbbbbbbbbbbbbbb",
"bbbbbbbbbbbbbbbbbbbbbbbbbbbbbbbbbbbbb",
"bbbbbbbbbbbbbbbbbbbbbbbbbbbbbbbbbbbbb",
"bbbbbbbbbbbbbbbbbbbbbbbbbbbbbbbbbbbbb",
"bbbbbbbbbbbbbbbbbbbbbbbbbbbbbbbbbbbbb",
"bbbbbbbbbbbbbbbbbbbbbbbbbbbbbbbbbbbbb",
"bbbbbbbbbbbbbbbbbbbbbbbbbbbbbbbbbbbbb"
};

