/* XPM */
static char *wider[] = {
/* width height num_colors chars_per_pixel */
"    37    37        6            1",
/* colors */
". c #000000",
"# c #0000fc",
"a c #808080",
"b c None",
"c c #fcfcfc",
"d c #fcfcfc",
/* pixels */
"bbbbbbbbbbbbbbbbbbbbbbbbbbbbbbbbbbbbb",
"bbbbbbbbbbbbbbbbbbbbbbbbbbbbbbbbbbbbb",
"bbbbbbbbbbbbbbbbbbbbbbbbbbbbbbbbbbbbb",
"bbbbbbbbbbbbbbbbbbbbbbbbbbbbbbbbbbbbb",
"bbbbbbbbbbbbbbbbbbbbbbbbbbbbbbbbbbbbb",
"bbbbbbbbbbbbbbbbbbbbbbbbbbbbbbbbbbbbb",
"bbbbbbbbbbbbbbbbbbbbbbbbbbbbbbbbbbbbb",
"bbbbbbbbbbbbbbbbbbbbbbbbbbbbbbbbbbbbb",
"bbbbbbbbbbbbbbbbbbbbbbbbbbbbbbbbbbbbb",
"bbbbbbbbbbbbbbbbbbbbbbbbbbbbbbbbbbbbb",
"bbbbbbbbbbbbbbbbbbbbbbbbbbbbbbbbbbbbb",
"bbbbbbbbbbbbb.bbbbbbbbbb.bbbbbbbbbbbb",
"bbbbbbbbbbbb..bbbbbbbbbb..bbbbbbbbbbb",
"bbbbbbbbbbb.#.bbbbbbbbbb.#.bbbbbbbbbb",
"bbbbbbbbbb.##.bbbbbbbbbb.##.bbbbbbbbb",
"bbbbbbbbb.###.bbbbbbbbbb.###.bbbbbbbb",
"bbbbbbbb.####.....bb.....####.bbbbbbb",
"bbbbbbb.#########.bb.#########.bbbbbb",
"bbbbbb.##########.bb.##########.bbbbb",
"bbbbbbb.#########.bb.#########.bbbbbb",
"bbbbbbbb.####.....bb.....####.bbbbbbb",
"bbbbbbbbb.###.bbbbbbbbbb.###.bbbbbbbb",
"bbbbbbbbbb.##.bbbbbbbbbb.##.bbbbbbbbb",
"bbbbbbbbbbb.#.bbbbbbbbbb.#.bbbbbbbbbb",
"bbbbbbbbbbbb..bbbbbbbbbb..bbbbbbbbbbb",
"bbbbbbbbbbbbb.bbbbbbbbbb.bbbbbbbbbbbb",
"bbbbbbbbbbbbbbbbbbbbbbbbbbbbbbbbbbbbb",
"bbbbbbbbbbbbbbbbbbbbbbbbbbbbbbbbbbbbb",
"bbbbbbbbbbbbbbbbbbbbbbbbbbbbbbbbbbbbb",
"bbbbbbbbbbbbbbbbbbbbbbbbbbbbbbbbbbbbb",
"bbbbbbbbbbbbbbbbbbbbbbbbbbbbbbbbbbbbb",
"bbbbbbbbbbbbbbbbbbbbbbbbbbbbbbbbbbbbb",
"bbbbbbbbbbbbbbbbbbbbbbbbbbbbbbbbbbbbb",
"bbbbbbbbbbbbbbbbbbbbbbbbbbbbbbbbbbbbb",
"bbbbbbbbbbbbbbbbbbbbbbbbbbbbbbbbbbbbb",
"bbbbbbbbbbbbbbbbbbbbbbbbbbbbbbbbbbbbb",
"bbbbbbbbbbbbbbbbbbbbbbbbbbbbbbbbbbbbb"
};

