/* XPM */
static char *shorter[] = {
/* width height num_colors chars_per_pixel */
"    37    37        6            1",
/* colors */
". c #000000",
"# c #0000fc",
"a c #808080",
"b c None",
"c c #fcfcfc",
"d c #fcfcfc",
/* pixels */
"bbbbbbbbbbbbbbbbbbbbbbbbbbbbbbbbbbbbb",
"bbbbbbbbbbbbbbbbbbbbbbbbbbbbbbbbbbbbb",
"bbbbbbbbbbbbbbbbbbbbbbbbbbbbbbbbbbbbb",
"bbbbbbbbbbbbbbbbbbbbbbbbbbbbbbbbbbbbb",
"bbbbbbbbbbbbbbbbbbbbbbbbbbbbbbbbbbbbb",
"bbbbbbbbbbbbbbbbbbbbbbbbbbbbbbbbbbbbb",
"bbbbbbbbbbbbbbbb.....bbbbbbbbbbbbbbbb",
"bbbbbbbbbbbbbbbb.###.bbbbbbbbbbbbbbbb",
"bbbbbbbbbbbbbbbb.###.bbbbbbbbbbbbbbbb",
"bbbbbbbbbbbbbbbb.###.bbbbbbbbbbbbbbbb",
"bbbbbbbbbbb......###......bbbbbbbbbbb",
"bbbbbbbbbbbb.###########.bbbbbbbbbbbb",
"bbbbbbbbbbbbb.#########.bbbbbbbbbbbbb",
"bbbbbbbbbbbbbb.#######.bbbbbbbbbbbbbb",
"bbbbbbbbbbbbbbb.#####.bbbbbbbbbbbbbbb",
"bbbbbbbbbbbbbbbb.###.bbbbbbbbbbbbbbbb",
"bbbbbbbbbbbbbbbbb.#.bbbbbbbbbbbbbbbbb",
"bbbbbbbbbbbbbbbbbb.bbbbbbbbbbbbbbbbbb",
"bbbbbbbbbbbbbbbbbbbbbbbbbbbbbbbbbbbbb",
"bbbbbbbbbbbbbbbbbbbbbbbbbbbbbbbbbbbbb",
"bbbbbbbbbbbbbbbbbb.bbbbbbbbbbbbbbbbbb",
"bbbbbbbbbbbbbbbbb.#.bbbbbbbbbbbbbbbbb",
"bbbbbbbbbbbbbbbb.###.bbbbbbbbbbbbbbbb",
"bbbbbbbbbbbbbbb.#####.bbbbbbbbbbbbbbb",
"bbbbbbbbbbbbbb.#######.bbbbbbbbbbbbbb",
"bbbbbbbbbbbbb.#########.bbbbbbbbbbbbb",
"bbbbbbbbbbbb.###########.bbbbbbbbbbbb",
"bbbbbbbbbbb......###......bbbbbbbbbbb",
"bbbbbbbbbbbbbbbb.###.bbbbbbbbbbbbbbbb",
"bbbbbbbbbbbbbbbb.###.bbbbbbbbbbbbbbbb",
"bbbbbbbbbbbbbbbb.###.bbbbbbbbbbbbbbbb",
"bbbbbbbbbbbbbbbb.....bbbbbbbbbbbbbbbb",
"bbbbbbbbbbbbbbbbbbbbbbbbbbbbbbbbbbbbb",
"bbbbbbbbbbbbbbbbbbbbbbbbbbbbbbbbbbbbb",
"bbbbbbbbbbbbbbbbbbbbbbbbbbbbbbbbbbbbb",
"bbbbbbbbbbbbbbbbbbbbbbbbbbbbbbbbbbbbb",
"bbbbbbbbbbbbbbbbbbbbbbbbbbbbbbbbbbbbb"
};

